<mxfile host="Electron" agent="Mozilla/5.0 (Windows NT 10.0; Win64; x64) AppleWebKit/537.36 (KHTML, like Gecko) draw.io/26.0.16 Chrome/132.0.6834.196 Electron/34.2.0 Safari/537.36" version="26.0.16">
  <diagram name="Page-1" id="yMP_mJY7fdbTFcyZRulZ">
    <mxGraphModel dx="2284" dy="836" grid="1" gridSize="10" guides="1" tooltips="1" connect="1" arrows="1" fold="1" page="1" pageScale="1" pageWidth="850" pageHeight="1100" math="0" shadow="0">
      <root>
        <mxCell id="0" />
        <mxCell id="1" parent="0" />
        <mxCell id="O8O4NDb9OmUCrtEncof7-3" value="" style="edgeStyle=orthogonalEdgeStyle;rounded=0;orthogonalLoop=1;jettySize=auto;html=1;" parent="1" source="O8O4NDb9OmUCrtEncof7-1" target="O8O4NDb9OmUCrtEncof7-2" edge="1">
          <mxGeometry relative="1" as="geometry" />
        </mxCell>
        <mxCell id="O8O4NDb9OmUCrtEncof7-1" value="Mulai" style="ellipse;whiteSpace=wrap;html=1;" parent="1" vertex="1">
          <mxGeometry x="-120" y="280" width="120" height="80" as="geometry" />
        </mxCell>
        <mxCell id="O8O4NDb9OmUCrtEncof7-25" value="" style="edgeStyle=orthogonalEdgeStyle;rounded=0;orthogonalLoop=1;jettySize=auto;html=1;" parent="1" source="O8O4NDb9OmUCrtEncof7-2" target="O8O4NDb9OmUCrtEncof7-24" edge="1">
          <mxGeometry relative="1" as="geometry" />
        </mxCell>
        <mxCell id="iWNPf0dCsWAmpqEqhvIO-12" style="edgeStyle=orthogonalEdgeStyle;rounded=0;orthogonalLoop=1;jettySize=auto;html=1;entryX=0.5;entryY=0;entryDx=0;entryDy=0;" parent="1" source="O8O4NDb9OmUCrtEncof7-2" target="iWNPf0dCsWAmpqEqhvIO-4" edge="1">
          <mxGeometry relative="1" as="geometry" />
        </mxCell>
        <mxCell id="O8O4NDb9OmUCrtEncof7-2" value="Home" style="rounded=1;whiteSpace=wrap;html=1;" parent="1" vertex="1">
          <mxGeometry x="-120" y="460" width="120" height="60" as="geometry" />
        </mxCell>
        <mxCell id="O8O4NDb9OmUCrtEncof7-7" value="" style="edgeStyle=orthogonalEdgeStyle;rounded=0;orthogonalLoop=1;jettySize=auto;html=1;" parent="1" source="O8O4NDb9OmUCrtEncof7-4" target="O8O4NDb9OmUCrtEncof7-6" edge="1">
          <mxGeometry relative="1" as="geometry" />
        </mxCell>
        <mxCell id="O8O4NDb9OmUCrtEncof7-4" value="Booking" style="whiteSpace=wrap;html=1;rounded=1;" parent="1" vertex="1">
          <mxGeometry x="-360" y="760" width="120" height="60" as="geometry" />
        </mxCell>
        <mxCell id="O8O4NDb9OmUCrtEncof7-11" value="" style="edgeStyle=orthogonalEdgeStyle;rounded=0;orthogonalLoop=1;jettySize=auto;html=1;" parent="1" source="O8O4NDb9OmUCrtEncof7-6" target="O8O4NDb9OmUCrtEncof7-10" edge="1">
          <mxGeometry relative="1" as="geometry" />
        </mxCell>
        <mxCell id="O8O4NDb9OmUCrtEncof7-6" value="History" style="whiteSpace=wrap;html=1;rounded=1;" parent="1" vertex="1">
          <mxGeometry x="-360" y="920" width="120" height="60" as="geometry" />
        </mxCell>
        <mxCell id="O8O4NDb9OmUCrtEncof7-13" value="" style="edgeStyle=orthogonalEdgeStyle;rounded=0;orthogonalLoop=1;jettySize=auto;html=1;" parent="1" source="O8O4NDb9OmUCrtEncof7-10" target="O8O4NDb9OmUCrtEncof7-12" edge="1">
          <mxGeometry relative="1" as="geometry" />
        </mxCell>
        <mxCell id="O8O4NDb9OmUCrtEncof7-14" value="Tidak" style="edgeLabel;html=1;align=center;verticalAlign=middle;resizable=0;points=[];" parent="O8O4NDb9OmUCrtEncof7-13" vertex="1" connectable="0">
          <mxGeometry relative="1" as="geometry">
            <mxPoint as="offset" />
          </mxGeometry>
        </mxCell>
        <mxCell id="O8O4NDb9OmUCrtEncof7-16" value="" style="edgeStyle=orthogonalEdgeStyle;rounded=0;orthogonalLoop=1;jettySize=auto;html=1;" parent="1" source="O8O4NDb9OmUCrtEncof7-10" target="O8O4NDb9OmUCrtEncof7-15" edge="1">
          <mxGeometry relative="1" as="geometry" />
        </mxCell>
        <mxCell id="O8O4NDb9OmUCrtEncof7-22" value="Ya" style="edgeLabel;html=1;align=center;verticalAlign=middle;resizable=0;points=[];" parent="O8O4NDb9OmUCrtEncof7-16" vertex="1" connectable="0">
          <mxGeometry relative="1" as="geometry">
            <mxPoint as="offset" />
          </mxGeometry>
        </mxCell>
        <mxCell id="O8O4NDb9OmUCrtEncof7-10" value="&lt;font style=&quot;font-size: 10px;&quot;&gt;Apakah Status Booking Sudah &quot;Success&quot; ?&lt;/font&gt;" style="rhombus;whiteSpace=wrap;html=1;rounded=1;spacingTop=4;" parent="1" vertex="1">
          <mxGeometry x="-365" y="1045" width="130" height="130" as="geometry" />
        </mxCell>
        <mxCell id="O8O4NDb9OmUCrtEncof7-12" value="Tombol Tidak Ditampilkan" style="whiteSpace=wrap;html=1;rounded=1;" parent="1" vertex="1">
          <mxGeometry x="-560" y="1080" width="120" height="60" as="geometry" />
        </mxCell>
        <mxCell id="O8O4NDb9OmUCrtEncof7-17" style="edgeStyle=orthogonalEdgeStyle;rounded=0;orthogonalLoop=1;jettySize=auto;html=1;entryX=0.5;entryY=1;entryDx=0;entryDy=0;" parent="1" source="O8O4NDb9OmUCrtEncof7-15" target="O8O4NDb9OmUCrtEncof7-12" edge="1">
          <mxGeometry relative="1" as="geometry" />
        </mxCell>
        <mxCell id="O8O4NDb9OmUCrtEncof7-18" value="Sudah" style="edgeLabel;html=1;align=center;verticalAlign=middle;resizable=0;points=[];" parent="O8O4NDb9OmUCrtEncof7-17" vertex="1" connectable="0">
          <mxGeometry relative="1" as="geometry">
            <mxPoint x="60" y="7" as="offset" />
          </mxGeometry>
        </mxCell>
        <mxCell id="O8O4NDb9OmUCrtEncof7-20" value="" style="edgeStyle=orthogonalEdgeStyle;rounded=0;orthogonalLoop=1;jettySize=auto;html=1;" parent="1" source="O8O4NDb9OmUCrtEncof7-15" target="O8O4NDb9OmUCrtEncof7-19" edge="1">
          <mxGeometry relative="1" as="geometry" />
        </mxCell>
        <mxCell id="O8O4NDb9OmUCrtEncof7-23" value="Belum" style="edgeLabel;html=1;align=center;verticalAlign=middle;resizable=0;points=[];" parent="O8O4NDb9OmUCrtEncof7-20" vertex="1" connectable="0">
          <mxGeometry relative="1" as="geometry">
            <mxPoint as="offset" />
          </mxGeometry>
        </mxCell>
        <mxCell id="O8O4NDb9OmUCrtEncof7-15" value="Sudah Memberi Ulasan?" style="rhombus;whiteSpace=wrap;html=1;rounded=1;spacingTop=6;" parent="1" vertex="1">
          <mxGeometry x="-365" y="1225.37" width="130" height="130" as="geometry" />
        </mxCell>
        <mxCell id="O8O4NDb9OmUCrtEncof7-21" style="edgeStyle=orthogonalEdgeStyle;rounded=0;orthogonalLoop=1;jettySize=auto;html=1;entryX=1;entryY=0.5;entryDx=0;entryDy=0;exitX=1;exitY=0.5;exitDx=0;exitDy=0;" parent="1" source="O8O4NDb9OmUCrtEncof7-19" target="O8O4NDb9OmUCrtEncof7-6" edge="1">
          <mxGeometry relative="1" as="geometry" />
        </mxCell>
        <mxCell id="O8O4NDb9OmUCrtEncof7-19" value="Review" style="rounded=1;whiteSpace=wrap;html=1;" parent="1" vertex="1">
          <mxGeometry x="-360" y="1421.37" width="120" height="60" as="geometry" />
        </mxCell>
        <mxCell id="O8O4NDb9OmUCrtEncof7-27" value="" style="edgeStyle=orthogonalEdgeStyle;rounded=0;orthogonalLoop=1;jettySize=auto;html=1;" parent="1" source="O8O4NDb9OmUCrtEncof7-24" target="O8O4NDb9OmUCrtEncof7-26" edge="1">
          <mxGeometry relative="1" as="geometry" />
        </mxCell>
        <mxCell id="O8O4NDb9OmUCrtEncof7-24" value="Login" style="whiteSpace=wrap;html=1;rounded=1;" parent="1" vertex="1">
          <mxGeometry x="80" y="460" width="120" height="60" as="geometry" />
        </mxCell>
        <mxCell id="O8O4NDb9OmUCrtEncof7-28" style="edgeStyle=orthogonalEdgeStyle;rounded=0;orthogonalLoop=1;jettySize=auto;html=1;entryX=0.833;entryY=1;entryDx=0;entryDy=0;entryPerimeter=0;" parent="1" source="O8O4NDb9OmUCrtEncof7-26" target="O8O4NDb9OmUCrtEncof7-2" edge="1">
          <mxGeometry relative="1" as="geometry" />
        </mxCell>
        <mxCell id="O8O4NDb9OmUCrtEncof7-29" value="Ya" style="edgeLabel;html=1;align=center;verticalAlign=middle;resizable=0;points=[];" parent="O8O4NDb9OmUCrtEncof7-28" vertex="1" connectable="0">
          <mxGeometry relative="1" as="geometry">
            <mxPoint x="60" y="12" as="offset" />
          </mxGeometry>
        </mxCell>
        <mxCell id="O8O4NDb9OmUCrtEncof7-31" value="" style="edgeStyle=orthogonalEdgeStyle;rounded=0;orthogonalLoop=1;jettySize=auto;html=1;" parent="1" source="O8O4NDb9OmUCrtEncof7-26" target="O8O4NDb9OmUCrtEncof7-30" edge="1">
          <mxGeometry relative="1" as="geometry" />
        </mxCell>
        <mxCell id="O8O4NDb9OmUCrtEncof7-32" value="Tidak" style="edgeLabel;html=1;align=center;verticalAlign=middle;resizable=0;points=[];" parent="O8O4NDb9OmUCrtEncof7-31" vertex="1" connectable="0">
          <mxGeometry relative="1" as="geometry">
            <mxPoint x="-3" as="offset" />
          </mxGeometry>
        </mxCell>
        <mxCell id="O8O4NDb9OmUCrtEncof7-26" value="Sudah Mempunyai Akun ?" style="rhombus;whiteSpace=wrap;html=1;rounded=1;spacingTop=8;" parent="1" vertex="1">
          <mxGeometry x="75" y="575" width="130" height="130" as="geometry" />
        </mxCell>
        <mxCell id="iWNPf0dCsWAmpqEqhvIO-25" style="edgeStyle=orthogonalEdgeStyle;rounded=0;orthogonalLoop=1;jettySize=auto;html=1;exitX=0.5;exitY=0;exitDx=0;exitDy=0;entryX=1;entryY=0.5;entryDx=0;entryDy=0;" parent="1" source="O8O4NDb9OmUCrtEncof7-30" target="O8O4NDb9OmUCrtEncof7-24" edge="1">
          <mxGeometry relative="1" as="geometry" />
        </mxCell>
        <mxCell id="O8O4NDb9OmUCrtEncof7-30" value="Register" style="whiteSpace=wrap;html=1;rounded=1;" parent="1" vertex="1">
          <mxGeometry x="280" y="610" width="120" height="60" as="geometry" />
        </mxCell>
        <mxCell id="O8O4NDb9OmUCrtEncof7-48" value="" style="edgeStyle=orthogonalEdgeStyle;rounded=0;orthogonalLoop=1;jettySize=auto;html=1;" parent="1" source="O8O4NDb9OmUCrtEncof7-37" target="O8O4NDb9OmUCrtEncof7-47" edge="1">
          <mxGeometry relative="1" as="geometry" />
        </mxCell>
        <mxCell id="O8O4NDb9OmUCrtEncof7-49" value="Sudah" style="edgeLabel;html=1;align=center;verticalAlign=middle;resizable=0;points=[];" parent="O8O4NDb9OmUCrtEncof7-48" vertex="1" connectable="0">
          <mxGeometry relative="1" as="geometry">
            <mxPoint as="offset" />
          </mxGeometry>
        </mxCell>
        <mxCell id="O8O4NDb9OmUCrtEncof7-51" value="" style="edgeStyle=orthogonalEdgeStyle;rounded=0;orthogonalLoop=1;jettySize=auto;html=1;" parent="1" source="O8O4NDb9OmUCrtEncof7-37" target="O8O4NDb9OmUCrtEncof7-50" edge="1">
          <mxGeometry relative="1" as="geometry" />
        </mxCell>
        <mxCell id="O8O4NDb9OmUCrtEncof7-52" value="Belum" style="edgeLabel;html=1;align=center;verticalAlign=middle;resizable=0;points=[];" parent="O8O4NDb9OmUCrtEncof7-51" vertex="1" connectable="0">
          <mxGeometry relative="1" as="geometry">
            <mxPoint x="-2" as="offset" />
          </mxGeometry>
        </mxCell>
        <mxCell id="O8O4NDb9OmUCrtEncof7-37" value="Sudah Memberi Ulasan?" style="rhombus;whiteSpace=wrap;html=1;rounded=1;verticalAlign=middle;spacingTop=6;" parent="1" vertex="1">
          <mxGeometry x="-120" y="890" width="120" height="120" as="geometry" />
        </mxCell>
        <mxCell id="O8O4NDb9OmUCrtEncof7-43" value="" style="edgeStyle=orthogonalEdgeStyle;rounded=0;orthogonalLoop=1;jettySize=auto;html=1;" parent="1" source="O8O4NDb9OmUCrtEncof7-40" target="O8O4NDb9OmUCrtEncof7-42" edge="1">
          <mxGeometry relative="1" as="geometry" />
        </mxCell>
        <mxCell id="O8O4NDb9OmUCrtEncof7-40" value="Profile" style="rounded=1;whiteSpace=wrap;html=1;" parent="1" vertex="1">
          <mxGeometry x="80" y="760" width="120" height="60" as="geometry" />
        </mxCell>
        <mxCell id="iWNPf0dCsWAmpqEqhvIO-23" style="edgeStyle=orthogonalEdgeStyle;rounded=0;orthogonalLoop=1;jettySize=auto;html=1;exitX=1;exitY=0.5;exitDx=0;exitDy=0;entryX=1;entryY=0.5;entryDx=0;entryDy=0;" parent="1" source="O8O4NDb9OmUCrtEncof7-42" target="O8O4NDb9OmUCrtEncof7-24" edge="1">
          <mxGeometry relative="1" as="geometry">
            <Array as="points">
              <mxPoint x="440" y="790" />
              <mxPoint x="440" y="490" />
            </Array>
          </mxGeometry>
        </mxCell>
        <mxCell id="O8O4NDb9OmUCrtEncof7-42" value="Change Password" style="rounded=1;whiteSpace=wrap;html=1;" parent="1" vertex="1">
          <mxGeometry x="280" y="760" width="120" height="60" as="geometry" />
        </mxCell>
        <mxCell id="O8O4NDb9OmUCrtEncof7-54" value="" style="edgeStyle=orthogonalEdgeStyle;rounded=0;orthogonalLoop=1;jettySize=auto;html=1;entryX=0.5;entryY=0;entryDx=0;entryDy=0;exitX=0.5;exitY=1;exitDx=0;exitDy=0;" parent="1" source="O8O4NDb9OmUCrtEncof7-47" target="O8O4NDb9OmUCrtEncof7-53" edge="1">
          <mxGeometry relative="1" as="geometry">
            <mxPoint x="-60" y="1240" as="sourcePoint" />
            <mxPoint x="-60" y="1290" as="targetPoint" />
          </mxGeometry>
        </mxCell>
        <mxCell id="O8O4NDb9OmUCrtEncof7-55" value="Sudah" style="edgeLabel;html=1;align=center;verticalAlign=middle;resizable=0;points=[];" parent="O8O4NDb9OmUCrtEncof7-54" vertex="1" connectable="0">
          <mxGeometry relative="1" as="geometry">
            <mxPoint as="offset" />
          </mxGeometry>
        </mxCell>
        <mxCell id="O8O4NDb9OmUCrtEncof7-57" value="" style="edgeStyle=orthogonalEdgeStyle;rounded=0;orthogonalLoop=1;jettySize=auto;html=1;" parent="1" source="O8O4NDb9OmUCrtEncof7-47" target="O8O4NDb9OmUCrtEncof7-56" edge="1">
          <mxGeometry relative="1" as="geometry" />
        </mxCell>
        <mxCell id="O8O4NDb9OmUCrtEncof7-58" value="Belum" style="edgeLabel;html=1;align=center;verticalAlign=middle;resizable=0;points=[];" parent="O8O4NDb9OmUCrtEncof7-57" vertex="1" connectable="0">
          <mxGeometry relative="1" as="geometry">
            <mxPoint x="2" as="offset" />
          </mxGeometry>
        </mxCell>
        <mxCell id="O8O4NDb9OmUCrtEncof7-47" value="Sudah Mengisi Kuesioner ?" style="rhombus;whiteSpace=wrap;html=1;rounded=1;align=center;spacingTop=4;" parent="1" vertex="1">
          <mxGeometry x="-120" y="1050" width="120" height="120" as="geometry" />
        </mxCell>
        <mxCell id="O8O4NDb9OmUCrtEncof7-50" value="Tombol di Non-Aktifkan" style="whiteSpace=wrap;html=1;rounded=1;" parent="1" vertex="1">
          <mxGeometry x="80" y="920" width="120" height="60" as="geometry" />
        </mxCell>
        <mxCell id="O8O4NDb9OmUCrtEncof7-59" style="edgeStyle=orthogonalEdgeStyle;rounded=0;orthogonalLoop=1;jettySize=auto;html=1;entryX=0.5;entryY=1;entryDx=0;entryDy=0;" parent="1" source="O8O4NDb9OmUCrtEncof7-53" target="O8O4NDb9OmUCrtEncof7-56" edge="1">
          <mxGeometry relative="1" as="geometry" />
        </mxCell>
        <mxCell id="O8O4NDb9OmUCrtEncof7-60" value="Ya" style="edgeLabel;html=1;align=center;verticalAlign=middle;resizable=0;points=[];" parent="O8O4NDb9OmUCrtEncof7-59" vertex="1" connectable="0">
          <mxGeometry relative="1" as="geometry">
            <mxPoint x="-60" y="15" as="offset" />
          </mxGeometry>
        </mxCell>
        <mxCell id="O8O4NDb9OmUCrtEncof7-53" value="&lt;font&gt;Apakah Status&lt;/font&gt;&lt;div&gt;&lt;font&gt;&lt;font style=&quot;&quot;&gt;Kuesioner Terakhir&amp;nbsp;&lt;/font&gt;&lt;span style=&quot;background-color: transparent; color: light-dark(rgb(0, 0, 0), rgb(255, 255, 255));&quot;&gt;Sudah&lt;/span&gt;&lt;/font&gt;&lt;/div&gt;&lt;div&gt;&lt;font&gt;Kadaluwarsa ?&lt;/font&gt;&lt;/div&gt;" style="rhombus;whiteSpace=wrap;html=1;rounded=1;" parent="1" vertex="1">
          <mxGeometry x="-140" y="1210" width="160" height="160" as="geometry" />
        </mxCell>
        <mxCell id="O8O4NDb9OmUCrtEncof7-64" value="" style="edgeStyle=orthogonalEdgeStyle;rounded=0;orthogonalLoop=1;jettySize=auto;html=1;" parent="1" source="O8O4NDb9OmUCrtEncof7-56" target="O8O4NDb9OmUCrtEncof7-63" edge="1">
          <mxGeometry relative="1" as="geometry" />
        </mxCell>
        <mxCell id="O8O4NDb9OmUCrtEncof7-56" value="Questionnaire" style="whiteSpace=wrap;html=1;rounded=1;" parent="1" vertex="1">
          <mxGeometry x="80" y="1080" width="120" height="60" as="geometry" />
        </mxCell>
        <mxCell id="O8O4NDb9OmUCrtEncof7-61" style="edgeStyle=orthogonalEdgeStyle;rounded=0;orthogonalLoop=1;jettySize=auto;html=1;entryX=1;entryY=0.5;entryDx=0;entryDy=0;" parent="1" source="O8O4NDb9OmUCrtEncof7-53" target="O8O4NDb9OmUCrtEncof7-50" edge="1">
          <mxGeometry relative="1" as="geometry">
            <Array as="points">
              <mxPoint x="-60" y="1400" />
              <mxPoint x="220" y="1400" />
              <mxPoint x="220" y="950" />
            </Array>
          </mxGeometry>
        </mxCell>
        <mxCell id="O8O4NDb9OmUCrtEncof7-62" value="Tidak" style="edgeLabel;html=1;align=center;verticalAlign=middle;resizable=0;points=[];" parent="O8O4NDb9OmUCrtEncof7-61" vertex="1" connectable="0">
          <mxGeometry relative="1" as="geometry">
            <mxPoint x="-140" y="80" as="offset" />
          </mxGeometry>
        </mxCell>
        <mxCell id="O8O4NDb9OmUCrtEncof7-66" value="" style="edgeStyle=orthogonalEdgeStyle;rounded=0;orthogonalLoop=1;jettySize=auto;html=1;" parent="1" source="O8O4NDb9OmUCrtEncof7-63" target="O8O4NDb9OmUCrtEncof7-65" edge="1">
          <mxGeometry relative="1" as="geometry" />
        </mxCell>
        <mxCell id="O8O4NDb9OmUCrtEncof7-63" value="Logout" style="whiteSpace=wrap;html=1;rounded=1;" parent="1" vertex="1">
          <mxGeometry x="280" y="1080" width="120" height="60" as="geometry" />
        </mxCell>
        <mxCell id="O8O4NDb9OmUCrtEncof7-65" value="Selesai" style="ellipse;whiteSpace=wrap;html=1;rounded=1;" parent="1" vertex="1">
          <mxGeometry x="280" y="1240" width="120" height="80" as="geometry" />
        </mxCell>
        <mxCell id="iWNPf0dCsWAmpqEqhvIO-14" style="edgeStyle=orthogonalEdgeStyle;rounded=0;orthogonalLoop=1;jettySize=auto;html=1;exitX=0;exitY=0.5;exitDx=0;exitDy=0;entryX=0.5;entryY=0;entryDx=0;entryDy=0;" parent="1" source="iWNPf0dCsWAmpqEqhvIO-4" target="O8O4NDb9OmUCrtEncof7-24" edge="1">
          <mxGeometry relative="1" as="geometry">
            <Array as="points">
              <mxPoint x="-160" y="790" />
              <mxPoint x="-160" y="400" />
              <mxPoint x="140" y="400" />
            </Array>
          </mxGeometry>
        </mxCell>
        <mxCell id="iWNPf0dCsWAmpqEqhvIO-18" value="Belum" style="edgeLabel;html=1;align=center;verticalAlign=middle;resizable=0;points=[];" parent="iWNPf0dCsWAmpqEqhvIO-14" vertex="1" connectable="0">
          <mxGeometry x="-0.7266" relative="1" as="geometry">
            <mxPoint y="-2" as="offset" />
          </mxGeometry>
        </mxCell>
        <mxCell id="iWNPf0dCsWAmpqEqhvIO-15" value="" style="edgeStyle=orthogonalEdgeStyle;rounded=0;orthogonalLoop=1;jettySize=auto;html=1;" parent="1" source="iWNPf0dCsWAmpqEqhvIO-4" target="O8O4NDb9OmUCrtEncof7-40" edge="1">
          <mxGeometry relative="1" as="geometry" />
        </mxCell>
        <mxCell id="iWNPf0dCsWAmpqEqhvIO-16" value="Sudah" style="edgeLabel;html=1;align=center;verticalAlign=middle;resizable=0;points=[];" parent="iWNPf0dCsWAmpqEqhvIO-15" vertex="1" connectable="0">
          <mxGeometry x="-0.2118" y="2" relative="1" as="geometry">
            <mxPoint x="8" y="2" as="offset" />
          </mxGeometry>
        </mxCell>
        <mxCell id="iWNPf0dCsWAmpqEqhvIO-19" value="" style="edgeStyle=orthogonalEdgeStyle;rounded=0;orthogonalLoop=1;jettySize=auto;html=1;" parent="1" source="iWNPf0dCsWAmpqEqhvIO-4" target="O8O4NDb9OmUCrtEncof7-37" edge="1">
          <mxGeometry relative="1" as="geometry" />
        </mxCell>
        <mxCell id="iWNPf0dCsWAmpqEqhvIO-20" value="Sudah" style="edgeLabel;html=1;align=center;verticalAlign=middle;resizable=0;points=[];" parent="iWNPf0dCsWAmpqEqhvIO-19" vertex="1" connectable="0">
          <mxGeometry x="-0.3636" y="3" relative="1" as="geometry">
            <mxPoint x="-3" as="offset" />
          </mxGeometry>
        </mxCell>
        <mxCell id="iWNPf0dCsWAmpqEqhvIO-21" style="edgeStyle=orthogonalEdgeStyle;rounded=0;orthogonalLoop=1;jettySize=auto;html=1;entryX=1;entryY=0.5;entryDx=0;entryDy=0;" parent="1" source="iWNPf0dCsWAmpqEqhvIO-4" target="O8O4NDb9OmUCrtEncof7-4" edge="1">
          <mxGeometry relative="1" as="geometry" />
        </mxCell>
        <mxCell id="iWNPf0dCsWAmpqEqhvIO-22" value="Sudah" style="edgeLabel;html=1;align=center;verticalAlign=middle;resizable=0;points=[];" parent="iWNPf0dCsWAmpqEqhvIO-21" vertex="1" connectable="0">
          <mxGeometry x="0.3118" y="-2" relative="1" as="geometry">
            <mxPoint x="-1" y="2" as="offset" />
          </mxGeometry>
        </mxCell>
        <mxCell id="iWNPf0dCsWAmpqEqhvIO-4" value="Sudah Login?" style="rhombus;whiteSpace=wrap;html=1;rounded=1;spacingTop=0;" parent="1" vertex="1">
          <mxGeometry x="-120" y="730" width="120" height="120" as="geometry" />
        </mxCell>
      </root>
    </mxGraphModel>
  </diagram>
</mxfile>
